<?xml version="1.0" standalone="no"?>
<!DOCTYPE svg PUBLIC "-//W3C//DTD SVG 20010904//EN"
 "https://www.w3.org/TR/2001/REC-SVG-20010904/DTD/svg10.dtd">
<svg version="1.0" xmlns="https://www.w3.org/2000/svg"
 width="1000.000000pt" height="1000.000000pt" viewBox="0 0 1000.000000 1000.000000"
 preserveAspectRatio="xMidYMid meet">
<metadata>
Created by potrace 1.11, written by Peter Selinger 2001-2013
</metadata>
<g transform="translate(0.000000,1000.000000) scale(0.100000,-0.100000)"
fill="#000000" stroke="none">
<path d="M4665 9309 c-1235 -94 -2378 -724 -3127 -1724 -400 -535 -677 -1176
-792 -1833 -50 -283 -60 -415 -60 -752 0 -337 10 -469 60 -752 187 -1073 789
-2050 1669 -2710 1137 -851 2633 -1088 3980 -628 1502 513 2608 1817 2864
3374 48 289 56 395 56 726 -1 224 -5 344 -18 452 -61 517 -189 963 -405 1411
-41 86 -78 157 -81 157 -5 0 -571 -936 -2561 -4235 -242 -401 -453 -742 -470
-757 -33 -31 -93 -38 -133 -17 -78 41 -1654 1004 -1664 1017 -7 9 -13 36 -13
60 0 39 14 69 118 240 124 206 151 236 207 229 17 -2 294 -164 635 -370 333
-201 605 -365 606 -364 10 12 2876 4781 2880 4791 4 10 -25 53 -79 118 -85
103 -319 357 -341 370 -8 4 -20 -6 -31 -25 -226 -388 -2593 -4309 -2612 -4325
-21 -19 -35 -22 -78 -20 -49 3 -96 30 -883 508 -556 338 -834 513 -841 528
-25 54 -14 82 107 282 64 106 129 202 145 214 15 11 42 20 60 19 24 0 180 -90
637 -366 542 -328 606 -364 617 -349 28 41 2373 3955 2371 3957 -67 51 -364
233 -465 283 l-59 30 -308 -511 c-170 -282 -622 -1029 -1003 -1662 -382 -632
-708 -1162 -724 -1177 -24 -23 -39 -28 -78 -28 -46 0 -86 23 -872 501 -453
275 -834 511 -846 525 -42 47 -33 74 97 293 69 114 132 208 147 218 55 36 60
33 648 -321 308 -186 580 -351 605 -367 35 -22 47 -26 56 -16 6 7 370 608 809
1337 438 729 814 1353 836 1388 21 35 39 65 39 67 0 6 -177 61 -290 90 -244
62 -518 106 -770 125 -156 12 -486 11 -645 -1z"/>
<path d="M8730 8026 c0 -2 8 -10 18 -17 15 -13 16 -12 3 4 -13 16 -21 21 -21
13z"/>
<path d="M8770 7976 c0 -2 8 -10 18 -17 15 -13 16 -12 3 4 -13 16 -21 21 -21
13z"/>
<path d="M8840 7886 c0 -2 8 -10 18 -17 15 -13 16 -12 3 4 -13 16 -21 21 -21
13z"/>
<path d="M8870 7846 c0 -2 8 -10 18 -17 15 -13 16 -12 3 4 -13 16 -21 21 -21
13z"/>
<path d="M1059 7763 c-13 -16 -12 -17 4 -4 16 13 21 21 13 21 -2 0 -10 -8 -17
-17z"/>
<path d="M8920 7776 c0 -2 8 -10 18 -17 15 -13 16 -12 3 4 -13 16 -21 21 -21
13z"/>
<path d="M9020 7633 c18 -29 36 -56 42 -59 14 -9 -20 49 -50 84 -16 19 -14 12
8 -25z"/>
<path d="M839 7423 c-570 -955 -791 -2103 -620 -3218 118 -770 429 -1513 896
-2140 273 -368 635 -730 1000 -1000 844 -626 1841 -955 2891 -955 1354 0 2655
574 3567 1575 819 899 1267 2053 1267 3265 0 679 -141 1346 -416 1968 -95 213
-280 557 -339 627 -18 21 -14 14 97 -180 314 -549 510 -1157 595 -1845 22
-183 25 -786 5 -975 -101 -922 -407 -1712 -939 -2423 -305 -407 -716 -801
-1135 -1086 -982 -669 -2155 -949 -3338 -795 -738 95 -1453 369 -2078 795
-419 285 -830 679 -1135 1086 -521 696 -830 1480 -934 2373 -25 218 -25 821 0
1025 93 753 306 1375 686 2003 13 20 20 37 17 37 -3 0 -42 -62 -87 -137z"/>
</g>
</svg>
