<svg id="Cloudy" xmlns="http://www.w3.org/2000/svg" viewBox="0 0 581 457"><defs><style>.cls-1,.cls-2{fill:#fff;}.cls-1{stroke:#4c287f;stroke-linecap:round;stroke-miterlimit:10;stroke-width:30px;}.cls-3{fill:#4c287f;}.cls-4{fill:#b25454;}.cls-5{fill:#dfd9e8;}</style></defs><title>cloudie</title><path id="Face_Background" data-name="Face Background" class="cls-1" d="M496.51,176.43a144.52,144.52,0,0,0-279.73-65.22A79.19,79.19,0,0,0,82.3,167.91a80.23,80.23,0,0,0,.55,9.22C43,194.35,15,234.05,15,280h0c0,61.6,50.4,112,112,112h27.92a207.47,207.47,0,0,0,270.16,0H454c61.6,0,112-50.4,112-112h0C566,233.43,537.19,193.26,496.51,176.43Z"/><g id="Left_Eye" data-name="Left Eye"><circle id="Left_Eyeball" data-name="Left Eyeball" class="cls-2" cx="446.5" cy="253" r="30"/><g id="_Left_Pupil" data-name="+Left Pupil"><circle class="cls-2" cx="447" cy="253.5" r="7.5"/><path class="cls-3" d="M447,276a22.5,22.5,0,1,1,22.5-22.5A22.52,22.52,0,0,1,447,276Z"/><circle id="_Left_Pupil-2" data-name="+Left Pupil" class="cls-2" cx="462" cy="239.5" r="7.5"/></g></g><g id="Right_Eye" data-name="Right Eye"><circle id="Right_Eyeball" data-name="Right Eyeball" class="cls-2" cx="132.5" cy="253" r="30"/><g id="_Right_Pupil" data-name="+Right Pupil"><circle class="cls-2" cx="133" cy="253.5" r="7.5"/><path class="cls-3" d="M133,276a22.5,22.5,0,1,1,22.5-22.5A22.52,22.52,0,0,1,133,276Z"/><circle id="_Left_Pupil-3" data-name="+Left Pupil" class="cls-2" cx="148" cy="239.5" r="7.5"/></g></g><g id="Mouth"><g id="Uh"><g id="Smile"><path class="cls-3" d="M306,337.35c-4.37,0-9-.26-13.84-.55l-5.36-.28c-11.11-.55-22.6-1.12-31.3-5.84C239.54,322,230,309,230,295.75V290.6l5.14.15,1,0h0c5.32,0,14.57-1,25.28-2.06,16.05-1.65,36-3.7,53.67-3.7s30.08,2.08,37.81,6.37l2.57,1.43v2.94c0,13.91-10,28.27-25.52,36.58C323.4,335.85,316.24,337.35,306,337.35Z"/><path class="cls-2" d="M315.12,290c14.64,0,27.62,1.43,35.38,5.74,0,11.3-8.07,24.23-22.88,32.17-6.45,3.45-13.28,4.43-21.58,4.43-4.11,0-8.58-.24-13.54-.54-12.41-.74-25.57-.65-34.58-5.53C243.81,318.63,235,307.14,235,295.75l1.17,0c13.73,0,49.65-5.76,79-5.76m0-10c-17.92,0-38,2.07-54.18,3.73-10.58,1.09-19.71,2-24.78,2l-.88,0L225,285.46v10.29c0,15.06,10.53,29.76,28.17,39.32,9.7,5.26,21.76,5.86,33.43,6.44,1.78.09,3.55.18,5.31.29,4.88.29,9.63.55,14.14.55,7.82,0,17.06-.67,26.3-5.62,17.11-9.16,28.16-25.25,28.16-41v-5.89L355.35,287c-8.6-4.78-21.38-7-40.23-7Z"/></g><path class="cls-2" d="M276.12,289s-1.26,10,6.27,10h21.35c6.27,0,6.27-9,6.27-9a90.84,90.84,0,0,0-17.57-2A139.06,139.06,0,0,0,276.12,289Z"/><path class="cls-4" d="M269.5,330s11.6-12.69,22.47-8.26S306.44,311.61,313.5,332A172.47,172.47,0,0,1,269.5,330Z"/></g></g><g id="_Left_Eyebrow" data-name="+Left Eyebrow"><path class="cls-2" d="M416.1,205.46C458.43,182.78,488.9,220,488.9,220"/><path class="cls-5" d="M416.1,205.46c4.45-5.93,10.84-10,18-12.42a44.31,44.31,0,0,1,11.19-2,45.67,45.67,0,0,1,31.38,11.05,45,45,0,0,1,7.41,8.08,37.74,37.74,0,0,1,2.84,4.69,24.48,24.48,0,0,1,2,5.15c-6.75-2.92-12.63-5.6-18.48-7.87a119.5,119.5,0,0,0-17-5.42c-2.83-.62-5.65-1.1-8.54-1.47s-5.82-.5-8.86-.62-6.2-.06-9.46.2c-1.67,0-3.31.25-5.06.3S418,205.46,416.1,205.46Z"/></g><g id="_Right_Eyebrow" data-name="+Right Eyebrow"><path class="cls-2" d="M167.31,204.51C124.41,182.93,94.91,221,94.91,221"/><path class="cls-5" d="M167.31,204.51c-1.9.05-3.64-.1-5.37-.17s-3.4-.2-5.06-.16c-3.27-.18-6.44,0-9.47,0-3,.21-6,.44-8.84.85s-5.69,1-8.5,1.7a120.71,120.71,0,0,0-16.89,5.85c-5.78,2.42-11.59,5.26-18.27,8.35a24.78,24.78,0,0,1,1.88-5.2A39.26,39.26,0,0,1,99.51,211a44.81,44.81,0,0,1,7.2-8.26,46.74,46.74,0,0,1,19.7-10.52,45.89,45.89,0,0,1,11.38-1.34A43.66,43.66,0,0,1,149,192.56C156.22,194.8,162.71,198.7,167.31,204.51Z"/></g></svg>