<svg id="szp-logo-rainbow" xmlns="http://www.w3.org/2000/svg" xmlns:xlink="http://www.w3.org/1999/xlink" viewBox="0 0 800 800"><defs><style>.cls-1{fill:none;}.cls-2{clip-path:url(#clip-path);}.cls-3{fill:url(#linear-gradient);}.cls-4{fill:url(#linear-gradient-2);}.cls-5{fill:url(#linear-gradient-3);}.cls-6{fill:url(#linear-gradient-4);}.cls-7{fill:url(#linear-gradient-5);}.cls-8{fill:url(#linear-gradient-6);}.cls-9{fill:url(#linear-gradient-7);}</style><clipPath id="clip-path"><circle class="cls-1" cx="400" cy="400" r="400"/></clipPath><linearGradient id="linear-gradient" x1="275.17" y1="836.29" x2="97.42" y2="57.31" gradientUnits="userSpaceOnUse"><stop offset="0" stop-color="#7d23a0"/><stop offset="0.25" stop-color="#3fa9f5"/><stop offset="0.5" stop-color="#7ac943"/><stop offset="0.75" stop-color="#ff931e"/><stop offset="1" stop-color="#ff1d25"/></linearGradient><linearGradient id="linear-gradient-2" x1="399.48" y1="807.92" x2="221.74" y2="28.94" xlink:href="#linear-gradient"/><linearGradient id="linear-gradient-3" x1="283.21" y1="834.45" x2="105.46" y2="55.47" xlink:href="#linear-gradient"/><linearGradient id="linear-gradient-4" x1="287.12" y1="833.56" x2="109.38" y2="54.58" xlink:href="#linear-gradient"/><linearGradient id="linear-gradient-5" x1="180.1" y1="857.98" x2="2.35" y2="79" xlink:href="#linear-gradient"/><linearGradient id="linear-gradient-6" x1="488.44" y1="787.62" x2="310.7" y2="8.64" xlink:href="#linear-gradient"/><linearGradient id="linear-gradient-7" x1="849.82" y1="705.17" x2="672.07" y2="-73.81" xlink:href="#linear-gradient"/></defs><title>szp-logo-rainbow</title><g class="cls-2"><rect class="cls-1" width="800" height="800"/></g><path class="cls-3" d="M198.21,495.9q14.58-3.64,19.15-16.57t0-31.06l-.48-1.89q-4.46-17.83-14.66-27.09t-24.71-5.64q-14.5,3.63-18.89,16.47t.13,30.81l.48,1.89q4.53,18.15,14.53,27.42T198.21,495.9Z"/><path class="cls-4" d="M371.31,549.88q-4.46-17.83-14.66-27.1t-24.71-5.63q-14.52,3.63-18.89,16.46t.13,30.82l.47,1.89q4.55,18.15,14.54,27.42t24.42,5.66q14.59-3.64,19.16-16.57t0-31.06Z"/><polygon class="cls-5" points="157.69 287.19 157.22 287.31 154.41 331.02 180.75 324.42 157.69 287.19"/><path class="cls-6" d="M235.36,547.74q-5.93-3.42-15.23-1.09l-16.33,4.09L212,583.63l15.93-4q9.61-2.42,13.41-7.71t1.85-13Q241.3,551.17,235.36,547.74Z"/><path class="cls-7" d="M137.5,601.83q3.62-6.48,1.58-14.61-2.07-8.28-8.36-12.45T114.82,573l-19.41,4.86,9.44,37.7,19.41-4.85Q133.87,608.31,137.5,601.83Z"/><path class="cls-8" d="M755.36,515.84,751.9,502l11.72-5.45-20.26-80.92-21.06,5.27L724.57,434,707,438.44l-7.66-30.61,100.3-25.11a397.81,397.81,0,0,0-75-216.49L576.3,414.11a4.92,4.92,0,0,1-3.19,2.21,6.68,6.68,0,0,1-4.3-.32l-73.49-44.32a4.32,4.32,0,0,1-2.65-3.08,5.65,5.65,0,0,1,.77-4.41l9.23-15.45A5.67,5.67,0,0,1,506.2,346a4.33,4.33,0,0,1,4,.87l53.51,32L705.29,141.56q-7.53-8.88-15.55-17.31L558.63,344a4.92,4.92,0,0,1-3.19,2.21,6.68,6.68,0,0,1-4.3-.32l-73.48-44.32a4.29,4.29,0,0,1-2.65-3.08,5.64,5.64,0,0,1,.76-4.41L485,278.63a5.65,5.65,0,0,1,3.52-2.76,4.33,4.33,0,0,1,4,.87l53.51,32L668.23,103.27q-8.09-7.3-16.55-14.18L541,273.84a4.92,4.92,0,0,1-3.19,2.21,6.68,6.68,0,0,1-4.3-.33L460,231.4a4.3,4.3,0,0,1-2.65-3.08,5.65,5.65,0,0,1,.77-4.41l9.23-15.45a5.67,5.67,0,0,1,3.53-2.76,4.3,4.3,0,0,1,4,.88l53.51,32L628.18,71.43A398.14,398.14,0,0,0,400,0C214.34,0,58.23,126.49,13.13,298a56.52,56.52,0,0,1,20-9.37,71.28,71.28,0,0,1,25.15-2,57.33,57.33,0,0,1,21,6.14l5.89,23.51-17.28,4.32-6.94-15a31.41,31.41,0,0,0-9.59-1.12,52.25,52.25,0,0,0-12.58,1.64q-9.47,2.37-13.64,7.64a12.82,12.82,0,0,0-2.58,11.59q1.45,5.83,7.8,8.23T51,336.79q20.33.52,32.32,6.74t15.53,20.34q3.69,14.75-5.85,26.19T64.36,406.28a68.65,68.65,0,0,1-25.74,1.83,52.41,52.41,0,0,1-21.34-7.39l-6-24,17.83-4.47L35.64,388a28.82,28.82,0,0,0,10.6,2.33A45.88,45.88,0,0,0,60,388.85q9.47-2.37,13.42-7.47a12.85,12.85,0,0,0,2.35-11.57,13.77,13.77,0,0,0-7.36-9.47q-5.7-2.85-18.34-3.45-21.91-.81-34.44-6.3a26.85,26.85,0,0,1-11.37-9.11A403.28,403.28,0,0,0,0,400,398.32,398.32,0,0,0,89.56,652.25L72,582.14l-12.82.69L55.71,569l12.23-3.06,42.43-10.62q19.72-4.93,33.66,2.34t18,23.69q4.13,16.49-4.76,29.36t-28.61,17.8l-19.41,4.86,6.38,25.48,12.9-.71,3.46,13.8L111.47,677A398.84,398.84,0,0,0,400,800c183.35,0,337.88-123.36,385.14-291.61ZM346.24,211.91l78.48-19.64,7.88,31.47-17.67,4.42-4.46-13.46-36.76,9.2,7.23,28.86L419.82,243l4.45,17.75-38.89,9.73,8.21,32.82L430.67,294l-2.41-14,17.51-4.38,7.86,31.39-90.87,22.75L359.3,316l11.64-5.43L350.3,228.16l-12.82.7L334,215ZM298.8,470.8l12.9-.71,3.46,13.8L267.59,495.8,264.14,482l11.63-5.42-20.63-82.43-12.82.7L238.84,381l12.23-3.06,23-5.76,65.73,65.69.46-.2-15.27-61-12.89.71-3.48-13.88,35.26-8.83,12.3-3.08,3.48,13.88L348,370.9l24.68,98.6-23,5.74L284,409.55l-.45.2Zm16.35-251.1L323,251.17l-17.67,4.42-4.46-13.47-37.47,9.38,7.92,31.63,40.23-10.07L316,290.81l-40.23,10.07,7.9,31.55,12.9-.71,3.45,13.8-47.56,11.91L249,343.62l11.64-5.42L240,255.77l-12.81.7-3.48-13.89ZM129.22,372.36l9.94-108.61,23.59-5.9L222.45,349l8.5-.87,3.46,13.8-39.12,9.8-3.46-13.81,7.61-3.41-9-14.51-37.23,9.32-1.1,17,8.33-.58,3.45,13.8-39.12,9.8-3.46-13.8ZM52.39,549.67l-3-12,34.7-99.13L47.57,447.7,49.23,462l-17.59,4.41-6.18-32.07L108,413.72l2.89,11.51L76.05,525l40-10-1.58-14.36L132,496.22l6.16,32ZM161,506.73q-18.45-12.9-24.77-38.14l-.43-1.74q-6.28-25.08,3.85-45.22t33.4-26q23.34-5.85,42,7.09t24.9,38l.43,1.73q6.31,25.25-4,45.34t-33.65,25.95Q179.41,519.63,161,506.73Zm123.45,127q-11.28,2.82-17.38-2.11t-8.5-14.55l-1.64-6.55q-2.1-8.35-7.74-12t-13.84-1.86l-18.85,4.72,7.58,30.29L237,631l3.45,13.8-47.56,11.91-3.45-13.8L201,637.43,180.4,555l-12.82.7-3.48-13.88,12.23-3.06,39.36-9.86q19.56-4.89,32.92,1.27t17.31,22a25.63,25.63,0,0,1-.88,16.23Q262,575.9,254,582.1q10.93.45,17.13,6.31t8.79,16.2l1.46,5.84a10.37,10.37,0,0,0,3,5.5,6.89,6.89,0,0,0,5.59,1.24l2.94-.32,3.48,13.88Zm106.32-42.38q-10.31,20.1-33.66,25.95t-41.71-7.08q-18.44-12.9-24.76-38.14l-.43-1.74q-6.29-25.08,3.85-45.22t33.4-26q23.34-5.85,42,7.09t24.9,38l.44,1.73Q401.05,571.27,390.75,591.36Zm89.67-15.28q-8.4,12.45-25,16.6-18,4.5-30.66-1.63t-16.56-23.26l0-.51,22.4-5.61q2.28,9.08,7.65,12.12T451,575a14.49,14.49,0,0,0,9.61-7.64q3.23-6,1.07-14.64l-16-64.13-12.9.71-3.47-13.88,35.25-8.83,12.31-3.08,3.47,13.89-11.71,5.44L484.66,547Q488.83,563.63,480.42,576.08ZM396.25,463.59l-3.45-13.8,11.63-5.43L383.8,361.93l-12.82.7-3.48-13.89,12.23-3.06L458.21,326l7.88,31.47-17.67,4.42L444,348.46l-36.75,9.21,7.22,28.86,38.89-9.73,4.44,17.75-38.88,9.73,8.21,32.81,37.07-9.28-2.41-14,17.51-4.38,7.86,31.39ZM516,575.76,512.57,562l11.63-5.43L503.57,474.1l-12.82.7-3.48-13.89,12.23-3.06L578,438.21l7.88,31.47-17.67,4.42-4.46-13.47L527,469.84l7.23,28.86L573.09,489l4.44,17.75-38.89,9.73,8.22,32.81L583.93,540l-2.41-14L599,521.62,606.89,553Zm182.66-49a60.68,60.68,0,0,1-22.9,10.81q-23.12,5.78-41.87-6.54t-25-37.4l-1-3.87q-6.27-25,4.38-44.76t33.91-25.59a59.34,59.34,0,0,1,25.27-1.17,53.13,53.13,0,0,1,21,8.37l5.69,22.72L681,453.57l-6.2-14.71a24.82,24.82,0,0,0-9.9-3.22,35.28,35.28,0,0,0-12.68,1.08q-15,3.75-20.34,16.66t-1,30.42l1,4q4.38,17.52,15.17,26.46t25.46,5.28a38.45,38.45,0,0,0,11.93-5.08,21.33,21.33,0,0,0,7.37-7.55L690.38,491l17.12-4.29,5.68,22.72A50.91,50.91,0,0,1,698.68,526.72Z"/><path class="cls-9" d="M791.69,417.23l-4.16-12.62-21.14,5.29,20.26,80.93,3-.17a399.42,399.42,0,0,0,10-75.44Z"/></svg>